<svg xmlns="http://www.w3.org/2000/svg" width="1000" height="430" viewBox="0 0 1000 430">
<rect width="100%" height="100%" fill="white"/>
<text x="500.0" y="30" text-anchor="middle" font-family="Arial, Helvetica, sans-serif" font-size="20" font-weight="bold" fill="#222222">OLS vs LAD Runtime as Problem Size Increases</text>
<text x="190.0" y="57" text-anchor="middle" font-family="Arial, Helvetica, sans-serif" font-size="15" font-weight="bold" fill="#222222">p = 1</text>
<line x1="65" y1="307.6" x2="315" y2="307.6" stroke="#D9D9D9" stroke-width="1"/>
<text x="57" y="311.6290390018684" text-anchor="end" font-family="Arial, Helvetica, sans-serif" font-size="10" font-weight="normal" fill="#222222">0.0001</text>
<line x1="65" y1="213.7" x2="315" y2="213.7" stroke="#D9D9D9" stroke-width="1"/>
<text x="57" y="217.717996674554" text-anchor="end" font-family="Arial, Helvetica, sans-serif" font-size="10" font-weight="normal" fill="#222222">0.001</text>
<line x1="65" y1="119.8" x2="315" y2="119.8" stroke="#D9D9D9" stroke-width="1"/>
<text x="57" y="123.80695434723958" text-anchor="end" font-family="Arial, Helvetica, sans-serif" font-size="10" font-weight="normal" fill="#222222">0.01</text>
<line x1="65" y1="75" x2="65" y2="345" stroke="#555555" stroke-width="1.2"/>
<line x1="65" y1="345" x2="315" y2="345" stroke="#555555" stroke-width="1.2"/>
<text x="65.0" y="365" text-anchor="middle" font-family="Arial, Helvetica, sans-serif" font-size="10" font-weight="normal" fill="#222222">50</text>
<text x="92.77777777777777" y="365" text-anchor="middle" font-family="Arial, Helvetica, sans-serif" font-size="10" font-weight="normal" fill="#222222">100</text>
<text x="176.1111111111111" y="365" text-anchor="middle" font-family="Arial, Helvetica, sans-serif" font-size="10" font-weight="normal" fill="#222222">250</text>
<text x="315.0" y="365" text-anchor="middle" font-family="Arial, Helvetica, sans-serif" font-size="10" font-weight="normal" fill="#222222">500</text>
<path d="M 65.0 332.0 L 92.8 337.6 L 176.1 335.1 L 315.0 317.8" fill="none" stroke="#4C78A8" stroke-width="2.2"/>
<circle cx="65.0" cy="332.0" r="4" fill="#4C78A8"/><circle cx="92.8" cy="337.6" r="4" fill="#4C78A8"/><circle cx="176.1" cy="335.1" r="4" fill="#4C78A8"/><circle cx="315.0" cy="317.8" r="4" fill="#4C78A8"/>
<path d="M 65.0 187.7 L 92.8 172.7 L 176.1 138.3 L 315.0 99.0" fill="none" stroke="#F58518" stroke-width="2.2"/>
<circle cx="65.0" cy="187.7" r="4" fill="#F58518"/><circle cx="92.8" cy="172.7" r="4" fill="#F58518"/><circle cx="176.1" cy="138.3" r="4" fill="#F58518"/><circle cx="315.0" cy="99.0" r="4" fill="#F58518"/>
<text x="190.0" y="387" text-anchor="middle" font-family="Arial, Helvetica, sans-serif" font-size="11" font-weight="normal" fill="#222222">Observations (n)</text>
<text x="490.0" y="57" text-anchor="middle" font-family="Arial, Helvetica, sans-serif" font-size="15" font-weight="bold" fill="#222222">p = 3</text>
<line x1="365" y1="307.6" x2="615" y2="307.6" stroke="#D9D9D9" stroke-width="1"/><line x1="365" y1="213.7" x2="615" y2="213.7" stroke="#D9D9D9" stroke-width="1"/><line x1="365" y1="119.8" x2="615" y2="119.8" stroke="#D9D9D9" stroke-width="1"/>
<line x1="365" y1="75" x2="365" y2="345" stroke="#555555" stroke-width="1.2"/><line x1="365" y1="345" x2="615" y2="345" stroke="#555555" stroke-width="1.2"/>
<text x="365.0" y="365" text-anchor="middle" font-family="Arial, Helvetica, sans-serif" font-size="10" font-weight="normal" fill="#222222">50</text><text x="392.77777777777777" y="365" text-anchor="middle" font-family="Arial, Helvetica, sans-serif" font-size="10" font-weight="normal" fill="#222222">100</text><text x="476.1111111111111" y="365" text-anchor="middle" font-family="Arial, Helvetica, sans-serif" font-size="10" font-weight="normal" fill="#222222">250</text><text x="615.0" y="365" text-anchor="middle" font-family="Arial, Helvetica, sans-serif" font-size="10" font-weight="normal" fill="#222222">500</text>
<path d="M 365.0 335.1 L 392.8 332.0 L 476.1 328.5 L 615.0 311.9" fill="none" stroke="#4C78A8" stroke-width="2.2"/>
<circle cx="365.0" cy="335.1" r="4" fill="#4C78A8"/><circle cx="392.8" cy="332.0" r="4" fill="#4C78A8"/><circle cx="476.1" cy="328.5" r="4" fill="#4C78A8"/><circle cx="615.0" cy="311.9" r="4" fill="#4C78A8"/>
<path d="M 365.0 186.8 L 392.8 169.5 L 476.1 132.4 L 615.0 93.3" fill="none" stroke="#F58518" stroke-width="2.2"/>
<circle cx="365.0" cy="186.8" r="4" fill="#F58518"/><circle cx="392.8" cy="169.5" r="4" fill="#F58518"/><circle cx="476.1" cy="132.4" r="4" fill="#F58518"/><circle cx="615.0" cy="93.3" r="4" fill="#F58518"/>
<text x="490.0" y="387" text-anchor="middle" font-family="Arial, Helvetica, sans-serif" font-size="11" font-weight="normal" fill="#222222">Observations (n)</text>
<text x="790.0" y="57" text-anchor="middle" font-family="Arial, Helvetica, sans-serif" font-size="15" font-weight="bold" fill="#222222">p = 5</text>
<line x1="665" y1="307.6" x2="915" y2="307.6" stroke="#D9D9D9" stroke-width="1"/><line x1="665" y1="213.7" x2="915" y2="213.7" stroke="#D9D9D9" stroke-width="1"/><line x1="665" y1="119.8" x2="915" y2="119.8" stroke="#D9D9D9" stroke-width="1"/>
<line x1="665" y1="75" x2="665" y2="345" stroke="#555555" stroke-width="1.2"/><line x1="665" y1="345" x2="915" y2="345" stroke="#555555" stroke-width="1.2"/>
<text x="665.0" y="365" text-anchor="middle" font-family="Arial, Helvetica, sans-serif" font-size="10" font-weight="normal" fill="#222222">50</text><text x="692.7777777777778" y="365" text-anchor="middle" font-family="Arial, Helvetica, sans-serif" font-size="10" font-weight="normal" fill="#222222">100</text><text x="776.1111111111111" y="365" text-anchor="middle" font-family="Arial, Helvetica, sans-serif" font-size="10" font-weight="normal" fill="#222222">250</text><text x="915.0" y="365" text-anchor="middle" font-family="Arial, Helvetica, sans-serif" font-size="10" font-weight="normal" fill="#222222">500</text>
<path d="M 665.0 326.5 L 692.8 329.1 L 776.1 323.4 L 915.0 307.6" fill="none" stroke="#4C78A8" stroke-width="2.2"/>
<circle cx="665.0" cy="326.5" r="4" fill="#4C78A8"/><circle cx="692.8" cy="329.1" r="4" fill="#4C78A8"/><circle cx="776.1" cy="323.4" r="4" fill="#4C78A8"/><circle cx="915.0" cy="307.6" r="4" fill="#4C78A8"/>
<path d="M 665.0 183.4 L 692.8 166.3 L 776.1 128.7 L 915.0 88.9" fill="none" stroke="#F58518" stroke-width="2.2"/>
<circle cx="665.0" cy="183.4" r="4" fill="#F58518"/><circle cx="692.8" cy="166.3" r="4" fill="#F58518"/><circle cx="776.1" cy="128.7" r="4" fill="#F58518"/><circle cx="915.0" cy="88.9" r="4" fill="#F58518"/>
<text x="790.0" y="387" text-anchor="middle" font-family="Arial, Helvetica, sans-serif" font-size="11" font-weight="normal" fill="#222222">Observations (n)</text>
<text x="18" y="210.0" text-anchor="middle" font-family="Arial, Helvetica, sans-serif" font-size="12" font-weight="normal" fill="#222222" transform="rotate(-90 18 210.0)">Median runtime (seconds, log scale)</text>
<line x1="790" y1="52" x2="815" y2="52" stroke="#4C78A8" stroke-width="3"/><text x="822" y="57" text-anchor="start" font-family="Arial, Helvetica, sans-serif" font-size="11" font-weight="normal" fill="#222222">OLS</text>
<line x1="865" y1="52" x2="890" y2="52" stroke="#F58518" stroke-width="3"/><text x="897" y="57" text-anchor="start" font-family="Arial, Helvetica, sans-serif" font-size="11" font-weight="normal" fill="#222222">LAD</text>
</svg>